# 3ds Max Wavefront OBJ Exporter v0.97b - (c)2007 guruware
# File Created: 14.01.2019 18:12:31

mtllib 0.mtl

#
# object 0
#

v  0.0603 0.1311 0.2506
v  0.0629 0.1311 0.2503
v  0.0656 0.1311 0.2493
v  0.0682 0.1311 0.2479
v  0.0709 0.1311 0.2461
v  0.0734 0.1311 0.2441
v  0.0758 0.1311 0.2420
v  0.0780 0.1311 0.2399
v  0.1781 0.1311 0.1389
v  0.1814 0.1311 0.1351
v  0.1844 0.1311 0.1308
v  0.1871 0.1311 0.1261
v  0.1894 0.1311 0.1212
v  0.1911 0.1311 0.1162
v  0.1923 0.1311 0.1112
v  0.1927 0.1311 0.1064
v  0.1937 0.1311 -0.2314
v  0.1935 0.1311 -0.2382
v  0.1925 0.1311 -0.2438
v  0.1906 0.1311 -0.2482
v  0.1877 0.1311 -0.2516
v  0.1835 0.1311 -0.2539
v  0.1780 0.1311 -0.2552
v  0.1708 0.1311 -0.2556
v  0.0518 0.1311 -0.1147
v  0.0518 0.1311 0.1140
v  -0.0504 0.1311 0.1140
v  -0.0504 0.1311 -0.1147
v  -0.0463 0.1311 -0.2547
v  -0.0507 0.1311 -0.2544
v  -0.0553 0.1311 -0.2535
v  -0.0599 0.1311 -0.2522
v  -0.0643 0.1311 -0.2505
v  -0.0686 0.1311 -0.2483
v  -0.0725 0.1311 -0.2458
v  -0.0759 0.1311 -0.2430
v  -0.1767 0.1311 -0.1429
v  -0.1798 0.1311 -0.1393
v  -0.1826 0.1311 -0.1352
v  -0.1850 0.1311 -0.1307
v  -0.1870 0.1311 -0.1260
v  -0.1885 0.1311 -0.1211
v  -0.1895 0.1311 -0.1163
v  -0.1899 0.1311 -0.1116
v  -0.1905 0.1311 0.2511
v  0.0518 0.0000 0.1140
v  0.0518 -0.0000 -0.1147
v  0.1708 -0.0000 -0.2556
v  0.1780 -0.0000 -0.2552
v  0.1835 -0.0000 -0.2539
v  0.1877 -0.0000 -0.2516
v  0.1906 -0.0000 -0.2482
v  0.1925 -0.0000 -0.2438
v  0.1935 -0.0000 -0.2382
v  0.1937 -0.0000 -0.2314
v  0.1927 0.0000 0.1064
v  0.1923 0.0000 0.1112
v  0.1911 0.0000 0.1162
v  0.1894 0.0000 0.1212
v  0.1871 0.0000 0.1261
v  0.1844 0.0000 0.1308
v  0.1814 0.0000 0.1351
v  0.1781 0.0000 0.1389
v  0.0780 0.0000 0.2399
v  0.0758 0.0000 0.2420
v  0.0734 0.0000 0.2441
v  0.0709 0.0000 0.2461
v  0.0682 0.0000 0.2479
v  0.0656 0.0000 0.2493
v  0.0629 0.0000 0.2503
v  0.0603 0.0000 0.2506
v  -0.1905 0.0000 0.2511
v  -0.1899 -0.0000 -0.1116
v  -0.1895 -0.0000 -0.1163
v  -0.1885 -0.0000 -0.1211
v  -0.1870 -0.0000 -0.1260
v  -0.1850 -0.0000 -0.1307
v  -0.1826 -0.0000 -0.1352
v  -0.1798 -0.0000 -0.1393
v  -0.1767 -0.0000 -0.1429
v  -0.0759 -0.0000 -0.2430
v  -0.0725 -0.0000 -0.2458
v  -0.0686 -0.0000 -0.2483
v  -0.0643 -0.0000 -0.2505
v  -0.0599 -0.0000 -0.2522
v  -0.0553 -0.0000 -0.2535
v  -0.0507 -0.0000 -0.2544
v  -0.0463 -0.0000 -0.2547
v  -0.0504 -0.0000 -0.1147
v  -0.0504 0.0000 0.1140
# 90 vertices

vn -0.0000 1.0000 -0.0000
vn 0.0000 1.0000 -0.0000
vn -0.0000 1.0000 0.0000
vn 0.0000 1.0000 0.0000
vn 0.0000 -1.0000 -0.0000
vn -1.0000 0.0000 -0.0000
vn 0.2378 0.0000 0.9713
vn 0.0693 0.0000 0.9976
vn 0.4048 0.0000 0.9144
vn 0.5160 0.0000 0.8566
vn 0.5907 0.0000 0.8069
vn 0.6417 0.0000 0.7669
vn 0.6770 0.0000 0.7360
vn 0.7008 0.0000 0.7134
vn 0.7367 0.0000 0.6762
vn 0.7912 0.0000 0.6116
vn 0.8429 0.0000 0.5381
vn 0.8870 0.0000 0.4618
vn 0.9261 0.0000 0.3773
vn 0.9605 0.0000 0.2783
vn 0.9876 0.0000 0.1569
vn 0.9989 0.0000 0.0462
vn 0.9998 0.0000 -0.0176
vn 0.0019 0.0000 1.0000
vn 0.0000 0.0000 -1.0000
vn -1.0000 0.0000 -0.0016
vn -0.9992 0.0000 -0.0400
vn 1.0000 0.0000 -0.0000
vn -0.9902 0.0000 -0.1396
vn -0.9678 0.0000 -0.2516
vn -0.9377 0.0000 -0.3474
vn -0.9008 0.0000 -0.4341
vn -0.8558 0.0000 -0.5173
vn -0.7986 0.0000 -0.6019
vn -0.7354 0.0000 -0.6776
vn -0.6702 0.0000 -0.7422
vn 0.0000 0.0000 1.0000
vn -0.5882 0.0000 -0.8087
vn -0.4964 0.0000 -0.8681
vn -0.4093 0.0000 -0.9124
vn -0.3226 0.0000 -0.9465
vn -0.2314 0.0000 -0.9729
vn -0.1296 0.0000 -0.9916
vn -0.0396 0.0000 -0.9992
vn 0.0238 0.0000 -0.9997
vn 0.9944 0.0000 -0.1053
vn 0.1422 0.0000 -0.9898
vn 0.9599 0.0000 -0.2804
vn 0.3633 0.0000 -0.9317
vn 0.9227 0.0000 -0.3855
vn 0.4880 0.0000 -0.8728
vn 0.7553 0.0000 -0.6554
# 52 vertex normals

o 0
g 0
usemtl wire_154154229
s off
f 1//1 2//2 3//2 4//3 5//2 6//2 7//3 8//2 9//3 10//3 11//2 12//2 13//3 14//2 15//2 16//2 17//2 18//2 19//4 20//3 21//3 22//2 23//4 24//4 25//1 26//3 27//4 28//1 25//1 24//4 29//2 30//2 31//3 32//2 33//2 34//2 35//2 36//2 37//2 38//2 39//2 40//3 41//1 42//2 43//2 44//3 45//3 
f 46//5 47//5 48//5 49//5 50//5 51//5 52//5 53//5 54//5 55//5 56//5 57//5 58//5 59//5 60//5 61//5 62//5 63//5 64//5 65//5 66//5 67//5 68//5 69//5 70//5 71//5 72//5 73//5 74//5 75//5 76//5 77//5 78//5 79//5 80//5 81//5 82//5 83//5 84//5 85//5 86//5 87//5 88//5 48//5 47//5 89//5 90//5 
f 26//6 25//6 47//6 46//6 
f 2//7 1//8 71//8 70//7 
f 3//9 2//7 70//7 69//9 
f 4//10 3//9 69//9 68//10 
f 5//11 4//10 68//10 67//11 
f 6//12 5//11 67//11 66//12 
f 7//13 6//12 66//12 65//13 
f 8//14 7//13 65//13 64//14 
f 9//15 8//14 64//14 63//15 
f 10//16 9//15 63//15 62//16 
f 11//17 10//16 62//16 61//17 
f 12//18 11//17 61//17 60//18 
f 13//19 12//18 60//18 59//19 
f 14//20 13//19 59//19 58//20 
f 15//21 14//20 58//20 57//21 
f 16//22 15//21 57//21 56//22 
f 17//23 16//22 56//22 55//23 
f 1//8 45//24 72//24 71//8 
f 27//25 26//25 46//25 90//25 
f 45//26 44//27 73//27 72//26 
f 28//28 27//28 90//28 89//28 
f 44//27 43//29 74//29 73//27 
f 43//29 42//30 75//30 74//29 
f 42//30 41//31 76//31 75//30 
f 41//31 40//32 77//32 76//31 
f 40//32 39//33 78//33 77//32 
f 39//33 38//34 79//34 78//33 
f 38//34 37//35 80//35 79//34 
f 37//35 36//36 81//36 80//35 
f 25//37 28//37 89//37 47//37 
f 36//36 35//38 82//38 81//36 
f 35//38 34//39 83//39 82//38 
f 34//39 33//40 84//40 83//39 
f 33//40 32//41 85//41 84//40 
f 32//41 31//42 86//42 85//41 
f 31//42 30//43 87//43 86//42 
f 30//43 29//44 88//44 87//43 
f 29//44 24//45 48//45 88//44 
f 18//46 17//23 55//23 54//46 
f 24//45 23//47 49//47 48//45 
f 19//48 18//46 54//46 53//48 
f 23//47 22//49 50//49 49//47 
f 20//50 19//48 53//48 52//50 
f 22//49 21//51 51//51 50//49 
f 21//52 20//52 52//52 51//52 
# 47 polygons

