# 3ds Max Wavefront OBJ Exporter v0.97b - (c)2007 guruware
# File Created: 14.01.2019 18:27:00

mtllib 2.mtl

#
# object 2
#

v  0.0664 0.1311 -0.4995
v  0.0664 0.1311 -0.6211
v  -0.0685 0.1311 -0.6211
v  -0.0685 0.1311 -0.5014
v  -0.3042 0.1311 -0.5014
v  -0.3042 0.1311 -0.6207
v  -0.4384 0.1311 -0.6207
v  -0.4384 0.1311 -0.4870
v  -0.3138 0.1311 -0.4870
v  -0.3142 0.1311 -0.3860
v  -0.3141 0.1311 -0.3787
v  -0.3131 0.1311 -0.3728
v  -0.3111 0.1311 -0.3683
v  -0.3079 0.1311 -0.3649
v  -0.3034 0.1311 -0.3627
v  -0.2975 0.1311 -0.3615
v  -0.2899 0.1311 -0.3613
v  -0.0801 0.1311 -0.3612
v  -0.0719 0.1311 -0.3615
v  -0.0652 0.1311 -0.3627
v  -0.0601 0.1311 -0.3651
v  -0.0564 0.1311 -0.3687
v  -0.0540 0.1311 -0.3737
v  -0.0528 0.1311 -0.3802
v  -0.0527 0.1311 -0.3885
v  -0.0532 0.1311 -0.4858
v  0.0531 0.1311 -0.4858
v  0.0528 0.1311 -0.3836
v  0.0530 0.1311 -0.3769
v  0.0542 0.1311 -0.3716
v  0.0563 0.1311 -0.3675
v  0.0594 0.1311 -0.3646
v  0.0635 0.1311 -0.3626
v  0.0689 0.1311 -0.3616
v  0.0754 0.1311 -0.3614
v  0.1718 0.1311 -0.3619
v  0.1773 0.1311 -0.3621
v  0.1821 0.1311 -0.3631
v  0.1861 0.1311 -0.3648
v  0.1892 0.1311 -0.3674
v  0.1915 0.1311 -0.3709
v  0.1929 0.1311 -0.3754
v  0.1934 0.1311 -0.3810
v  0.1933 0.1311 -0.4995
v  0.0664 -0.0000 -0.4995
v  0.0664 -0.0000 -0.6211
v  -0.0685 -0.0000 -0.6211
v  -0.0685 -0.0000 -0.5014
v  -0.3042 -0.0000 -0.5014
v  -0.3042 -0.0000 -0.6207
v  -0.4384 -0.0000 -0.6207
v  -0.4384 -0.0000 -0.4870
v  -0.3138 -0.0000 -0.4870
v  -0.3142 -0.0000 -0.3860
v  -0.3141 -0.0000 -0.3787
v  -0.3131 -0.0000 -0.3728
v  -0.3111 -0.0000 -0.3683
v  -0.3079 -0.0000 -0.3649
v  -0.3034 -0.0000 -0.3627
v  -0.2975 -0.0000 -0.3615
v  -0.2899 -0.0000 -0.3613
v  -0.0801 -0.0000 -0.3612
v  -0.0719 -0.0000 -0.3615
v  -0.0652 -0.0000 -0.3627
v  -0.0601 -0.0000 -0.3651
v  -0.0564 -0.0000 -0.3687
v  -0.0540 -0.0000 -0.3737
v  -0.0528 -0.0000 -0.3802
v  -0.0527 -0.0000 -0.3885
v  -0.0532 -0.0000 -0.4858
v  0.0531 -0.0000 -0.4858
v  0.0528 -0.0000 -0.3836
v  0.0530 -0.0000 -0.3769
v  0.0542 -0.0000 -0.3716
v  0.0563 -0.0000 -0.3675
v  0.0594 -0.0000 -0.3646
v  0.0635 -0.0000 -0.3626
v  0.0689 -0.0000 -0.3616
v  0.0754 -0.0000 -0.3614
v  0.1718 -0.0000 -0.3619
v  0.1773 -0.0000 -0.3621
v  0.1821 -0.0000 -0.3631
v  0.1861 -0.0000 -0.3648
v  0.1892 -0.0000 -0.3674
v  0.1915 -0.0000 -0.3709
v  0.1929 -0.0000 -0.3754
v  0.1934 -0.0000 -0.3810
v  0.1933 -0.0000 -0.4995
# 88 vertices

vn 0.0000 1.0000 -0.0000
vn 0.0000 1.0000 -0.0000
vn 0.0000 1.0000 -0.0000
vn 0.0000 1.0000 -0.0000
vn 0.0000 1.0000 -0.0000
vn 0.0000 1.0000 -0.0000
vn 0.0000 1.0000 -0.0000
vn 0.0000 1.0000 -0.0000
vn 0.0000 1.0000 -0.0000
vn 0.0000 1.0000 -0.0000
vn 0.0000 1.0000 -0.0000
vn 0.0000 1.0000 -0.0000
vn -0.0000 1.0000 0.0000
vn -0.0000 1.0000 0.0000
vn -0.0000 1.0000 0.0000
vn 0.0000 1.0000 -0.0000
vn 0.0000 1.0000 -0.0000
vn 0.0000 1.0000 -0.0000
vn 0.0000 1.0000 -0.0000
vn 0.0000 1.0000 -0.0000
vn 0.0000 1.0000 -0.0000
vn 0.0000 1.0000 -0.0000
vn 0.0000 1.0000 -0.0000
vn 0.0000 1.0000 -0.0000
vn -0.0000 1.0000 0.0000
vn -0.0000 1.0000 0.0000
vn -0.0000 1.0000 0.0000
vn 0.0000 1.0000 -0.0000
vn 0.0000 1.0000 -0.0000
vn 0.0000 1.0000 -0.0000
vn 0.0000 1.0000 -0.0000
vn 0.0000 1.0000 -0.0000
vn 0.0000 1.0000 -0.0000
vn 0.0000 1.0000 -0.0000
vn 0.0000 1.0000 -0.0000
vn 0.0000 1.0000 -0.0000
vn 0.0000 1.0000 -0.0000
vn 0.0000 1.0000 -0.0000
vn 0.0000 1.0000 -0.0000
vn -0.0000 1.0000 0.0000
vn -0.0000 1.0000 0.0000
vn -0.0000 1.0000 0.0000
vn 0.0000 1.0000 -0.0000
vn 0.0000 1.0000 -0.0000
vn 0.0000 1.0000 -0.0000
vn 0.0000 1.0000 -0.0000
vn 0.0000 1.0000 -0.0000
vn 0.0000 1.0000 -0.0000
vn 0.0000 1.0000 -0.0000
vn 0.0000 1.0000 -0.0000
vn 0.0000 1.0000 -0.0000
vn 0.0000 1.0000 -0.0000
vn 0.0000 1.0000 -0.0000
vn 0.0000 1.0000 -0.0000
vn 0.0000 1.0000 -0.0000
vn 0.0000 1.0000 -0.0000
vn 0.0000 1.0000 -0.0000
vn 0.0000 1.0000 -0.0000
vn 0.0000 1.0000 -0.0000
vn 0.0000 1.0000 -0.0000
vn 0.0000 1.0000 -0.0000
vn 0.0000 1.0000 -0.0000
vn 0.0000 1.0000 -0.0000
vn 0.0000 1.0000 -0.0000
vn 0.0000 1.0000 -0.0000
vn 0.0000 1.0000 -0.0000
vn 0.0000 1.0000 -0.0000
vn 0.0000 1.0000 -0.0000
vn 0.0000 1.0000 -0.0000
vn 0.0000 1.0000 -0.0000
vn 0.0000 1.0000 -0.0000
vn 0.0000 1.0000 -0.0000
vn 0.0000 1.0000 -0.0000
vn 0.0000 1.0000 -0.0000
vn 0.0000 1.0000 -0.0000
vn 0.0000 1.0000 -0.0000
vn 0.0000 1.0000 -0.0000
vn 0.0000 1.0000 -0.0000
vn -0.0000 1.0000 -0.0000
vn -0.0000 1.0000 -0.0000
vn -0.0000 1.0000 -0.0000
vn 0.0000 1.0000 -0.0000
vn 0.0000 1.0000 -0.0000
vn 0.0000 1.0000 -0.0000
vn 0.0000 1.0000 -0.0000
vn 0.0000 1.0000 -0.0000
vn 0.0000 1.0000 -0.0000
vn -0.0000 1.0000 -0.0000
vn -0.0000 1.0000 -0.0000
vn -0.0000 1.0000 -0.0000
vn 0.0000 1.0000 -0.0000
vn 0.0000 1.0000 -0.0000
vn 0.0000 1.0000 -0.0000
vn -0.0000 1.0000 -0.0000
vn -0.0000 1.0000 -0.0000
vn -0.0000 1.0000 -0.0000
vn 0.0000 1.0000 0.0000
vn 0.0000 1.0000 0.0000
vn 0.0000 1.0000 0.0000
vn 0.0000 1.0000 -0.0000
vn 0.0000 1.0000 -0.0000
vn 0.0000 1.0000 -0.0000
vn 0.0000 1.0000 -0.0000
vn 0.0000 1.0000 -0.0000
vn 0.0000 1.0000 -0.0000
vn 0.0000 1.0000 -0.0000
vn 0.0000 1.0000 -0.0000
vn 0.0000 1.0000 -0.0000
vn 0.0000 1.0000 -0.0000
vn 0.0000 1.0000 -0.0000
vn 0.0000 1.0000 -0.0000
vn 0.0000 1.0000 -0.0000
vn 0.0000 1.0000 -0.0000
vn 0.0000 1.0000 -0.0000
vn -0.0000 1.0000 -0.0000
vn -0.0000 1.0000 -0.0000
vn -0.0000 1.0000 -0.0000
vn 0.0000 1.0000 0.0000
vn 0.0000 1.0000 0.0000
vn 0.0000 1.0000 0.0000
vn -0.0000 1.0000 -0.0000
vn -0.0000 1.0000 -0.0000
vn -0.0000 1.0000 -0.0000
vn 0.0000 1.0000 -0.0000
vn 0.0000 1.0000 -0.0000
vn 0.0000 1.0000 -0.0000
vn 0.0000 -1.0000 0.0000
vn 0.0000 -1.0000 0.0000
vn 0.0000 -1.0000 0.0000
vn 0.0000 -1.0000 0.0000
vn 0.0000 -1.0000 0.0000
vn 0.0000 -1.0000 0.0000
vn 0.0000 -1.0000 0.0000
vn 0.0000 -1.0000 0.0000
vn 0.0000 -1.0000 0.0000
vn 0.0000 -1.0000 0.0000
vn 0.0000 -1.0000 0.0000
vn 0.0000 -1.0000 0.0000
vn 0.0000 -1.0000 0.0000
vn 0.0000 -1.0000 0.0000
vn 0.0000 -1.0000 0.0000
vn 0.0000 -1.0000 0.0000
vn 0.0000 -1.0000 0.0000
vn 0.0000 -1.0000 0.0000
vn 0.0000 -1.0000 0.0000
vn 0.0000 -1.0000 0.0000
vn 0.0000 -1.0000 0.0000
vn 0.0000 -1.0000 0.0000
vn 0.0000 -1.0000 0.0000
vn 0.0000 -1.0000 0.0000
vn 0.0000 -1.0000 0.0000
vn 0.0000 -1.0000 0.0000
vn 0.0000 -1.0000 0.0000
vn 0.0000 -1.0000 0.0000
vn 0.0000 -1.0000 0.0000
vn 0.0000 -1.0000 0.0000
vn 0.0000 -1.0000 0.0000
vn 0.0000 -1.0000 0.0000
vn 0.0000 -1.0000 0.0000
vn 0.0000 -1.0000 0.0000
vn 0.0000 -1.0000 0.0000
vn 0.0000 -1.0000 0.0000
vn 0.0000 -1.0000 0.0000
vn 0.0000 -1.0000 0.0000
vn 0.0000 -1.0000 0.0000
vn 0.0000 -1.0000 0.0000
vn 0.0000 -1.0000 0.0000
vn 0.0000 -1.0000 0.0000
vn 0.0000 -1.0000 0.0000
vn 0.0000 -1.0000 0.0000
vn 0.0000 -1.0000 0.0000
vn 0.0000 -1.0000 0.0000
vn 0.0000 -1.0000 0.0000
vn 0.0000 -1.0000 0.0000
vn 0.0000 -1.0000 0.0000
vn 0.0000 -1.0000 0.0000
vn 0.0000 -1.0000 0.0000
vn 0.0000 -1.0000 0.0000
vn 0.0000 -1.0000 0.0000
vn 0.0000 -1.0000 0.0000
vn 0.0000 -1.0000 0.0000
vn 0.0000 -1.0000 0.0000
vn 0.0000 -1.0000 0.0000
vn 0.0000 -1.0000 0.0000
vn 0.0000 -1.0000 0.0000
vn 0.0000 -1.0000 0.0000
vn 0.0000 -1.0000 0.0000
vn 0.0000 -1.0000 0.0000
vn 0.0000 -1.0000 0.0000
vn 0.0000 -1.0000 0.0000
vn 0.0000 -1.0000 0.0000
vn 0.0000 -1.0000 0.0000
vn 0.0000 -1.0000 0.0000
vn 0.0000 -1.0000 0.0000
vn 0.0000 -1.0000 0.0000
vn 0.0000 -1.0000 0.0000
vn 0.0000 -1.0000 0.0000
vn 0.0000 -1.0000 0.0000
vn 0.0000 -1.0000 0.0000
vn 0.0000 -1.0000 0.0000
vn 0.0000 -1.0000 0.0000
vn 0.0000 -1.0000 0.0000
vn 0.0000 -1.0000 0.0000
vn 0.0000 -1.0000 0.0000
vn 0.0000 -1.0000 0.0000
vn 0.0000 -1.0000 0.0000
vn 0.0000 -1.0000 0.0000
vn 0.0000 -1.0000 0.0000
vn 0.0000 -1.0000 0.0000
vn 0.0000 -1.0000 0.0000
vn 0.0000 -1.0000 0.0000
vn 0.0000 -1.0000 0.0000
vn 0.0000 -1.0000 0.0000
vn 0.0000 -1.0000 0.0000
vn 0.0000 -1.0000 0.0000
vn 0.0000 -1.0000 0.0000
vn 0.0000 -1.0000 0.0000
vn 0.0000 -1.0000 0.0000
vn 0.0000 -1.0000 0.0000
vn 0.0000 -1.0000 0.0000
vn 0.0000 -1.0000 0.0000
vn 0.0000 -1.0000 0.0000
vn 0.0000 -1.0000 0.0000
vn 0.0000 -1.0000 0.0000
vn 0.0000 -1.0000 0.0000
vn 0.0000 -1.0000 0.0000
vn 0.0000 -1.0000 0.0000
vn 0.0000 -1.0000 0.0000
vn 0.0000 -1.0000 0.0000
vn 0.0000 -1.0000 0.0000
vn 0.0000 -1.0000 0.0000
vn 0.0000 -1.0000 0.0000
vn 0.0000 -1.0000 0.0000
vn 0.0000 -1.0000 0.0000
vn 0.0000 -1.0000 0.0000
vn 0.0000 -1.0000 0.0000
vn 0.0000 -1.0000 0.0000
vn 0.0000 -1.0000 0.0000
vn 0.0000 -1.0000 0.0000
vn 0.0000 -1.0000 0.0000
vn 0.0000 -1.0000 0.0000
vn 0.0000 -1.0000 0.0000
vn 0.0000 -1.0000 0.0000
vn 0.0000 -1.0000 0.0000
vn 0.0000 -1.0000 0.0000
vn 0.0000 -1.0000 0.0000
vn 0.0000 -1.0000 0.0000
vn 0.0000 -1.0000 0.0000
vn 0.0000 -1.0000 0.0000
vn 0.0000 -1.0000 0.0000
vn 0.0000 -1.0000 0.0000
vn 0.0000 -1.0000 0.0000
vn -1.0000 0.0000 -0.0000
vn -1.0000 0.0000 -0.0000
vn -1.0000 0.0000 -0.0000
vn -1.0000 0.0000 -0.0000
vn -1.0000 0.0000 -0.0000
vn -1.0000 0.0000 -0.0000
vn 0.0000 0.0000 1.0000
vn 0.0000 0.0000 1.0000
vn 0.0000 0.0000 1.0000
vn 0.0000 0.0000 1.0000
vn 0.0000 0.0000 1.0000
vn 0.0000 0.0000 1.0000
vn 0.0000 -0.0000 -1.0000
vn 0.0000 -0.0000 -1.0000
vn 0.0000 -0.0000 -1.0000
vn 0.0000 -0.0000 -1.0000
vn 0.0000 -0.0000 -1.0000
vn 0.0000 -0.0000 -1.0000
vn 1.0000 0.0000 -0.0000
vn 1.0000 0.0000 -0.0000
vn 1.0000 0.0000 -0.0000
vn 1.0000 0.0000 -0.0000
vn 1.0000 0.0000 -0.0000
vn 1.0000 0.0000 -0.0000
vn 0.0000 -0.0000 -1.0000
vn 0.0000 -0.0000 -1.0000
vn 0.0000 -0.0000 -1.0000
vn 0.0000 -0.0000 -1.0000
vn 0.0000 -0.0000 -1.0000
vn 0.0000 -0.0000 -1.0000
vn -1.0000 0.0000 -0.0000
vn -1.0000 0.0000 -0.0000
vn -1.0000 0.0000 -0.0000
vn -1.0000 0.0000 -0.0000
vn -1.0000 0.0000 -0.0000
vn -1.0000 0.0000 -0.0000
vn 1.0000 0.0000 -0.0000
vn 1.0000 0.0000 -0.0000
vn 1.0000 0.0000 -0.0000
vn 1.0000 0.0000 -0.0000
vn 1.0000 0.0000 -0.0000
vn 1.0000 0.0000 -0.0000
vn 1.0000 -0.0000 -0.0001
vn 1.0000 -0.0000 -0.0001
vn 1.0000 -0.0000 -0.0001
vn 1.0000 -0.0000 -0.0001
vn 1.0000 -0.0000 -0.0001
vn 1.0000 -0.0000 -0.0001
vn 0.0000 -0.0000 -1.0000
vn 0.0000 -0.0000 -1.0000
vn 0.0000 -0.0000 -1.0000
vn 0.0000 -0.0000 -1.0000
vn 0.0000 -0.0000 -1.0000
vn 0.0000 -0.0000 -1.0000
vn 0.0000 -0.0000 -1.0000
vn 0.0000 -0.0000 -1.0000
vn 0.0000 -0.0000 -1.0000
vn 0.0000 -0.0000 -1.0000
vn 0.0000 -0.0000 -1.0000
vn 0.0000 -0.0000 -1.0000
vn -1.0000 -0.0000 -0.0037
vn -1.0000 -0.0000 -0.0037
vn -1.0000 -0.0000 -0.0037
vn -1.0000 -0.0000 -0.0037
vn -1.0000 -0.0000 -0.0037
vn -1.0000 -0.0000 -0.0037
vn -0.9999 0.0000 0.0107
vn -0.9999 0.0000 0.0107
vn -0.9999 0.0000 0.0107
vn -0.9999 0.0000 0.0107
vn -0.9999 0.0000 0.0107
vn -0.9999 0.0000 0.0107
vn -0.9862 0.0000 0.1653
vn -0.9862 0.0000 0.1653
vn -0.9862 0.0000 0.1653
vn -0.9862 0.0000 0.1653
vn -0.9862 0.0000 0.1653
vn -0.9862 0.0000 0.1653
vn -0.9135 0.0000 0.4069
vn -0.9135 0.0000 0.4069
vn -0.9135 0.0000 0.4069
vn -0.9135 0.0000 0.4069
vn -0.9135 0.0000 0.4069
vn -0.9135 0.0000 0.4069
vn -0.7204 0.0000 0.6935
vn -0.7204 0.0000 0.6935
vn -0.7204 0.0000 0.6935
vn -0.7204 0.0000 0.6935
vn -0.7204 0.0000 0.6935
vn -0.7204 0.0000 0.6935
vn -0.4395 0.0000 0.8982
vn -0.4395 0.0000 0.8982
vn -0.4395 0.0000 0.8982
vn -0.4395 0.0000 0.8982
vn -0.4395 0.0000 0.8982
vn -0.4395 0.0000 0.8982
vn -0.1966 0.0000 0.9805
vn -0.1966 0.0000 0.9805
vn -0.1966 0.0000 0.9805
vn -0.1966 0.0000 0.9805
vn -0.1966 0.0000 0.9805
vn -0.1966 0.0000 0.9805
vn -0.0379 0.0000 0.9993
vn -0.0379 0.0000 0.9993
vn -0.0379 0.0000 0.9993
vn -0.0379 0.0000 0.9993
vn -0.0379 0.0000 0.9993
vn -0.0379 0.0000 0.9993
vn -0.0001 0.0000 1.0000
vn -0.0001 0.0000 1.0000
vn -0.0001 0.0000 1.0000
vn -0.0001 0.0000 1.0000
vn -0.0001 0.0000 1.0000
vn -0.0001 0.0000 1.0000
vn 0.0328 0.0000 0.9995
vn 0.0328 0.0000 0.9995
vn 0.0328 0.0000 0.9995
vn 0.0328 0.0000 0.9995
vn 0.0328 0.0000 0.9995
vn 0.0328 0.0000 0.9995
vn 0.1815 0.0000 0.9834
vn 0.1815 0.0000 0.9834
vn 0.1815 0.0000 0.9834
vn 0.1815 0.0000 0.9834
vn 0.1815 0.0000 0.9834
vn 0.1815 0.0000 0.9834
vn 0.4140 0.0000 0.9103
vn 0.4140 0.0000 0.9103
vn 0.4140 0.0000 0.9103
vn 0.4140 0.0000 0.9103
vn 0.4140 0.0000 0.9103
vn 0.4140 0.0000 0.9103
vn 0.6949 0.0000 0.7191
vn 0.6949 0.0000 0.7191
vn 0.6949 0.0000 0.7191
vn 0.6949 0.0000 0.7191
vn 0.6949 0.0000 0.7191
vn 0.6949 0.0000 0.7191
vn 0.9015 0.0000 0.4328
vn 0.9015 0.0000 0.4328
vn 0.9015 0.0000 0.4328
vn 0.9015 0.0000 0.4328
vn 0.9015 0.0000 0.4328
vn 0.9015 0.0000 0.4328
vn 0.9841 0.0000 0.1775
vn 0.9841 0.0000 0.1775
vn 0.9841 0.0000 0.1775
vn 0.9841 0.0000 0.1775
vn 0.9841 0.0000 0.1775
vn 0.9841 0.0000 0.1775
vn 1.0000 0.0000 0.0076
vn 1.0000 0.0000 0.0076
vn 1.0000 0.0000 0.0076
vn 1.0000 0.0000 0.0076
vn 1.0000 0.0000 0.0076
vn 1.0000 0.0000 0.0076
vn 1.0000 -0.0000 -0.0044
vn 1.0000 -0.0000 -0.0044
vn 1.0000 -0.0000 -0.0044
vn 1.0000 -0.0000 -0.0044
vn 1.0000 -0.0000 -0.0044
vn 1.0000 -0.0000 -0.0044
vn 0.0000 0.0000 1.0000
vn 0.0000 0.0000 1.0000
vn 0.0000 0.0000 1.0000
vn 0.0000 0.0000 1.0000
vn 0.0000 0.0000 1.0000
vn 0.0000 0.0000 1.0000
vn -1.0000 -0.0000 -0.0028
vn -1.0000 -0.0000 -0.0028
vn -1.0000 -0.0000 -0.0028
vn -1.0000 -0.0000 -0.0028
vn -1.0000 -0.0000 -0.0028
vn -1.0000 -0.0000 -0.0028
vn 0.9966 0.0000 0.0826
vn 0.9966 0.0000 0.0826
vn 0.9966 0.0000 0.0826
vn 0.9966 0.0000 0.0826
vn 0.9966 0.0000 0.0826
vn 0.9966 0.0000 0.0826
vn 0.9562 0.0000 0.2928
vn 0.9562 0.0000 0.2928
vn 0.9562 0.0000 0.2928
vn 0.9562 0.0000 0.2928
vn 0.9562 0.0000 0.2928
vn 0.9562 0.0000 0.2928
vn 0.8389 0.0000 0.5442
vn 0.8389 0.0000 0.5442
vn 0.8389 0.0000 0.5442
vn 0.8389 0.0000 0.5442
vn 0.8389 0.0000 0.5442
vn 0.8389 0.0000 0.5442
vn 0.6341 0.0000 0.7732
vn 0.6341 0.0000 0.7732
vn 0.6341 0.0000 0.7732
vn 0.6341 0.0000 0.7732
vn 0.6341 0.0000 0.7732
vn 0.6341 0.0000 0.7732
vn 0.3972 0.0000 0.9177
vn 0.3972 0.0000 0.9177
vn 0.3972 0.0000 0.9177
vn 0.3972 0.0000 0.9177
vn 0.3972 0.0000 0.9177
vn 0.3972 0.0000 0.9177
vn 0.1939 0.0000 0.9810
vn 0.1939 0.0000 0.9810
vn 0.1939 0.0000 0.9810
vn 0.1939 0.0000 0.9810
vn 0.1939 0.0000 0.9810
vn 0.1939 0.0000 0.9810
vn 0.0449 0.0000 0.9990
vn 0.0449 0.0000 0.9990
vn 0.0449 0.0000 0.9990
vn 0.0449 0.0000 0.9990
vn 0.0449 0.0000 0.9990
vn 0.0449 0.0000 0.9990
vn 0.0044 0.0000 1.0000
vn 0.0044 0.0000 1.0000
vn 0.0044 0.0000 1.0000
vn 0.0044 0.0000 1.0000
vn 0.0044 0.0000 1.0000
vn 0.0044 0.0000 1.0000
vn -0.0257 0.0000 0.9997
vn -0.0257 0.0000 0.9997
vn -0.0257 0.0000 0.9997
vn -0.0257 0.0000 0.9997
vn -0.0257 0.0000 0.9997
vn -0.0257 0.0000 0.9997
vn -0.9994 0.0000 0.0337
vn -0.9994 0.0000 0.0337
vn -0.9994 0.0000 0.0337
vn -0.9994 0.0000 0.0337
vn -0.9994 0.0000 0.0337
vn -0.9994 0.0000 0.0337
vn -0.1870 0.0000 0.9824
vn -0.1870 0.0000 0.9824
vn -0.1870 0.0000 0.9824
vn -0.1870 0.0000 0.9824
vn -0.1870 0.0000 0.9824
vn -0.1870 0.0000 0.9824
vn -0.9783 0.0000 0.2074
vn -0.9783 0.0000 0.2074
vn -0.9783 0.0000 0.2074
vn -0.9783 0.0000 0.2074
vn -0.9783 0.0000 0.2074
vn -0.9783 0.0000 0.2074
vn -0.4223 0.0000 0.9064
vn -0.4223 0.0000 0.9064
vn -0.4223 0.0000 0.9064
vn -0.4223 0.0000 0.9064
vn -0.4223 0.0000 0.9064
vn -0.4223 0.0000 0.9064
vn -0.8911 0.0000 0.4538
vn -0.8911 0.0000 0.4538
vn -0.8911 0.0000 0.4538
vn -0.8911 0.0000 0.4538
vn -0.8911 0.0000 0.4538
vn -0.8911 0.0000 0.4538
vn -0.6921 0.0000 0.7218
vn -0.6921 0.0000 0.7218
vn -0.6921 0.0000 0.7218
vn -0.6921 0.0000 0.7218
vn -0.6921 0.0000 0.7218
vn -0.6921 0.0000 0.7218
# 516 vertex normals

o 2
g 2
usemtl wire_154154229
s off
f 7//1 8//2 9//3 
f 30//4 31//5 32//6 
f 30//7 32//8 33//9 
f 29//10 30//11 33//12 
f 29//13 33//14 34//15 
f 28//16 29//17 34//18 
f 28//19 34//20 35//21 
f 28//22 35//23 36//24 
f 28//25 36//26 37//27 
f 28//28 37//29 38//30 
f 28//31 38//32 39//33 
f 28//34 39//35 40//36 
f 28//37 40//38 41//39 
f 28//40 41//41 42//42 
f 28//43 42//44 43//45 
f 27//46 28//47 43//48 
f 43//49 44//50 1//51 
f 27//52 43//53 1//54 
f 26//55 27//56 1//57 
f 2//58 3//59 4//60 
f 1//61 2//62 4//63 
f 26//64 1//65 4//66 
f 25//67 26//68 4//69 
f 24//70 25//71 4//72 
f 23//73 24//74 4//75 
f 22//76 23//77 4//78 
f 21//79 22//80 4//81 
f 20//82 21//83 4//84 
f 19//85 20//86 4//87 
f 18//88 19//89 4//90 
f 17//91 18//92 4//93 
f 16//94 17//95 4//96 
f 15//97 16//98 4//99 
f 14//100 15//101 4//102 
f 13//103 14//104 4//105 
f 12//106 13//107 4//108 
f 11//109 12//110 4//111 
f 10//112 11//113 4//114 
f 9//115 10//116 4//117 
f 9//118 4//119 5//120 
f 9//121 5//122 6//123 
f 7//124 9//125 6//126 
f 53//127 52//128 51//129 
f 53//130 51//131 50//132 
f 53//133 50//134 49//135 
f 53//136 49//137 48//138 
f 48//139 47//140 46//141 
f 48//142 46//143 45//144 
f 45//145 88//146 87//147 
f 76//148 75//149 74//150 
f 77//151 76//152 74//153 
f 77//154 74//155 73//156 
f 78//157 77//158 73//159 
f 78//160 73//161 72//162 
f 79//163 78//164 72//165 
f 80//166 79//167 72//168 
f 81//169 80//170 72//171 
f 82//172 81//173 72//174 
f 83//175 82//176 72//177 
f 84//178 83//179 72//180 
f 85//181 84//182 72//183 
f 86//184 85//185 72//186 
f 87//187 86//188 72//189 
f 87//190 72//191 71//192 
f 45//193 87//194 71//195 
f 45//196 71//197 70//198 
f 48//199 45//200 70//201 
f 48//202 70//203 69//204 
f 48//205 69//206 68//207 
f 48//208 68//209 67//210 
f 48//211 67//212 66//213 
f 48//214 66//215 65//216 
f 48//217 65//218 64//219 
f 48//220 64//221 63//222 
f 48//223 63//224 62//225 
f 48//226 62//227 61//228 
f 48//229 61//230 60//231 
f 48//232 60//233 59//234 
f 48//235 59//236 58//237 
f 48//238 58//239 57//240 
f 48//241 57//242 56//243 
f 48//244 56//245 55//246 
f 48//247 55//248 54//249 
f 53//250 48//251 54//252 
f 51//253 52//254 8//255 
f 8//256 7//257 51//258 
f 52//259 53//260 9//261 
f 9//262 8//263 52//264 
f 50//265 51//266 7//267 
f 7//268 6//269 50//270 
f 49//271 50//272 6//273 
f 6//274 5//275 49//276 
f 46//277 47//278 3//279 
f 3//280 2//281 46//282 
f 47//283 48//284 4//285 
f 4//286 3//287 47//288 
f 45//289 46//290 2//291 
f 2//292 1//293 45//294 
f 87//295 88//296 44//297 
f 44//298 43//299 87//300 
f 88//301 45//302 1//303 
f 1//304 44//305 88//306 
f 48//307 49//308 5//309 
f 5//310 4//311 48//312 
f 53//313 54//314 10//315 
f 10//316 9//317 53//318 
f 54//319 55//320 11//321 
f 11//322 10//323 54//324 
f 55//325 56//326 12//327 
f 12//328 11//329 55//330 
f 56//331 57//332 13//333 
f 13//334 12//335 56//336 
f 57//337 58//338 14//339 
f 14//340 13//341 57//342 
f 58//343 59//344 15//345 
f 15//346 14//347 58//348 
f 59//349 60//350 16//351 
f 16//352 15//353 59//354 
f 60//355 61//356 17//357 
f 17//358 16//359 60//360 
f 61//361 62//362 18//363 
f 18//364 17//365 61//366 
f 62//367 63//368 19//369 
f 19//370 18//371 62//372 
f 63//373 64//374 20//375 
f 20//376 19//377 63//378 
f 64//379 65//380 21//381 
f 21//382 20//383 64//384 
f 65//385 66//386 22//387 
f 22//388 21//389 65//390 
f 66//391 67//392 23//393 
f 23//394 22//395 66//396 
f 67//397 68//398 24//399 
f 24//400 23//401 67//402 
f 68//403 69//404 25//405 
f 25//406 24//407 68//408 
f 69//409 70//410 26//411 
f 26//412 25//413 69//414 
f 70//415 71//416 27//417 
f 27//418 26//419 70//420 
f 71//421 72//422 28//423 
f 28//424 27//425 71//426 
f 86//427 87//428 43//429 
f 43//430 42//431 86//432 
f 85//433 86//434 42//435 
f 42//436 41//437 85//438 
f 84//439 85//440 41//441 
f 41//442 40//443 84//444 
f 83//445 84//446 40//447 
f 40//448 39//449 83//450 
f 82//451 83//452 39//453 
f 39//454 38//455 82//456 
f 81//457 82//458 38//459 
f 38//460 37//461 81//462 
f 80//463 81//464 37//465 
f 37//466 36//467 80//468 
f 79//469 80//470 36//471 
f 36//472 35//473 79//474 
f 78//475 79//476 35//477 
f 35//478 34//479 78//480 
f 72//481 73//482 29//483 
f 29//484 28//485 72//486 
f 77//487 78//488 34//489 
f 34//490 33//491 77//492 
f 73//493 74//494 30//495 
f 30//496 29//497 73//498 
f 76//499 77//500 33//501 
f 33//502 32//503 76//504 
f 74//505 75//506 31//507 
f 31//508 30//509 74//510 
f 75//511 76//512 32//513 
f 32//514 31//515 75//516 
# 172 faces

